<?xml version="1.0"?>
<!--Icons from directory ""-->
<svg xmlns="http://www.w3.org/2000/svg" width="40" height="82" viewBox="0 0 40 82"><svg width="40" height="41" fill="none" viewBox="-10 -10 40 41" id="arrow-down" y="0"><path fill-rule="evenodd" clip-rule="evenodd" d="M10 3.833c.46 0 .833.373.833.834v11.666a.833.833 0 01-1.666 0V4.667c0-.46.373-.834.833-.834z" fill="#8F97A3"/><path fill-rule="evenodd" clip-rule="evenodd" d="M3.577 9.91a.833.833 0 011.179 0L10 15.156l5.244-5.244a.833.833 0 111.178 1.178l-5.833 5.834a.833.833 0 01-1.178 0l-5.834-5.834a.833.833 0 010-1.178z" fill="#8F97A3"/></svg><svg width="40" height="41" fill="none" viewBox="-10 -10 40 41" id="arrow-down1" y="41"><path fill-rule="evenodd" clip-rule="evenodd" d="M10 3.833c.46 0 .833.373.833.834v11.666a.833.833 0 01-1.666 0V4.667c0-.46.373-.834.833-.834z" fill="#45917D"/><path fill-rule="evenodd" clip-rule="evenodd" d="M3.577 9.91a.833.833 0 011.179 0L10 15.156l5.244-5.244a.833.833 0 111.178 1.178l-5.833 5.834a.833.833 0 01-1.178 0l-5.834-5.834a.833.833 0 010-1.178z" fill="#45917D"/></svg></svg>
