<svg width="15" height="15" viewBox="0 0 15 15" fill="none" xmlns="http://www.w3.org/2000/svg">
<circle cx="7.5" cy="7.5" r="7.5" fill="#17191C" fill-opacity="0.8"/>
<path fill-rule="evenodd" clip-rule="evenodd" d="M10.6919 4.30806C10.936 4.55214 10.936 4.94786 10.6919 5.19194L5.19194 10.6919C4.94786 10.936 4.55214 10.936 4.30806 10.6919C4.06398 10.4479 4.06398 10.0521 4.30806 9.80806L9.80806 4.30806C10.0521 4.06398 10.4479 4.06398 10.6919 4.30806Z" fill="white"/>
<path fill-rule="evenodd" clip-rule="evenodd" d="M4.30806 4.30806C4.55214 4.06398 4.94786 4.06398 5.19194 4.30806L10.6919 9.80806C10.936 10.0521 10.936 10.4479 10.6919 10.6919C10.4479 10.936 10.0521 10.936 9.80806 10.6919L4.30806 5.19194C4.06398 4.94786 4.06398 4.55214 4.30806 4.30806Z" fill="white"/>
</svg>
