<svg width="20" height="20" viewBox="0 0 20 20" fill="none" xmlns="http://www.w3.org/2000/svg">
<path fill-rule="evenodd" clip-rule="evenodd" d="M8.33325 9.99992C8.33325 9.07944 9.07944 8.33325 9.99992 8.33325C10.9204 8.33325 11.6666 9.07944 11.6666 9.99992C11.6666 10.9204 10.9204 11.6666 9.99992 11.6666C9.07944 11.6666 8.33325 10.9204 8.33325 9.99992Z" fill="#B9BEC6"/>
<path fill-rule="evenodd" clip-rule="evenodd" d="M14.1667 9.99992C14.1667 9.07944 14.9129 8.33325 15.8334 8.33325C16.7539 8.33325 17.5001 9.07944 17.5001 9.99992C17.5001 10.9204 16.7539 11.6666 15.8334 11.6666C14.9129 11.6666 14.1667 10.9204 14.1667 9.99992Z" fill="#B9BEC6"/>
<path fill-rule="evenodd" clip-rule="evenodd" d="M2.5 9.99992C2.5 9.07944 3.24619 8.33325 4.16667 8.33325C5.08714 8.33325 5.83333 9.07944 5.83333 9.99992C5.83333 10.9204 5.08714 11.6666 4.16667 11.6666C3.24619 11.6666 2.5 10.9204 2.5 9.99992Z" fill="#B9BEC6"/>
</svg>
