<svg width="20" height="20" viewBox="0 0 20 20" fill="none" xmlns="http://www.w3.org/2000/svg">
<rect width="20" height="20" fill="white" fill-opacity="0.01" style="mix-blend-mode:multiply"/>
<path d="M10.0001 10.8333C10.4603 10.8333 10.8334 10.4602 10.8334 9.99996C10.8334 9.53972 10.4603 9.16663 10.0001 9.16663C9.53984 9.16663 9.16675 9.53972 9.16675 9.99996C9.16675 10.4602 9.53984 10.8333 10.0001 10.8333Z" stroke="#83888F" stroke-width="1.8" stroke-linecap="round" stroke-linejoin="round"/>
<path d="M15.8333 10.8333C16.2936 10.8333 16.6667 10.4602 16.6667 9.99996C16.6667 9.53972 16.2936 9.16663 15.8333 9.16663C15.3731 9.16663 15 9.53972 15 9.99996C15 10.4602 15.3731 10.8333 15.8333 10.8333Z" stroke="#83888F" stroke-width="1.8" stroke-linecap="round" stroke-linejoin="round"/>
<path d="M4.16659 10.8333C4.62682 10.8333 4.99992 10.4602 4.99992 9.99996C4.99992 9.53972 4.62682 9.16663 4.16659 9.16663C3.70635 9.16663 3.33325 9.53972 3.33325 9.99996C3.33325 10.4602 3.70635 10.8333 4.16659 10.8333Z" stroke="#83888F" stroke-width="1.8" stroke-linecap="round" stroke-linejoin="round"/>
</svg>
