<svg width="20" height="20" viewBox="0 0 20 20" fill="none" xmlns="http://www.w3.org/2000/svg">
<path fill-rule="evenodd" clip-rule="evenodd" d="M15.5893 4.41083C15.9147 4.73626 15.9147 5.2639 15.5893 5.58934L5.58928 15.5893C5.26384 15.9148 4.7362 15.9148 4.41076 15.5893C4.08533 15.2639 4.08533 14.7363 4.41076 14.4108L14.4108 4.41083C14.7362 4.08539 15.2638 4.08539 15.5893 4.41083Z" fill="#B9BEC6"/>
<path fill-rule="evenodd" clip-rule="evenodd" d="M4.41076 4.41083C4.7362 4.08539 5.26384 4.08539 5.58928 4.41083L15.5893 14.4108C15.9147 14.7363 15.9147 15.2639 15.5893 15.5893C15.2638 15.9148 14.7362 15.9148 14.4108 15.5893L4.41076 5.58934C4.08533 5.2639 4.08533 4.73626 4.41076 4.41083Z" fill="#B9BEC6"/>
</svg>
