<svg width="20" height="20" viewBox="0 0 20 20" fill="none" xmlns="http://www.w3.org/2000/svg">
<rect width="20" height="20" fill="white" fill-opacity="0.01" style="mix-blend-mode:multiply"/>
<path d="M17.8654 9.71848L10.207 17.3768C9.26883 18.315 7.99635 18.8421 6.66953 18.8421C5.34271 18.8421 4.07023 18.315 3.13203 17.3768C2.19383 16.4386 1.66675 15.1661 1.66675 13.8393C1.66675 12.5125 2.19383 11.24 3.13203 10.3018L10.7904 2.64348C11.4158 2.01801 12.2641 1.66663 13.1487 1.66663C14.0332 1.66663 14.8816 2.01801 15.507 2.64348C16.1325 3.26895 16.4839 4.11727 16.4839 5.00181C16.4839 5.88636 16.1325 6.73468 15.507 7.36015L7.84036 15.0185C7.52763 15.3312 7.10347 15.5069 6.6612 15.5069C6.21892 15.5069 5.79476 15.3312 5.48203 15.0185C5.16929 14.7057 4.9936 14.2816 4.9936 13.8393C4.9936 13.397 5.16929 12.9729 5.48203 12.6601L12.557 5.59348" stroke="#83888F" stroke-width="1.8" stroke-linecap="round" stroke-linejoin="round"/>
</svg>
