<svg width="20" height="20" viewBox="0 0 20 20" fill="none" xmlns="http://www.w3.org/2000/svg">
<path fill-rule="evenodd" clip-rule="evenodd" d="M2.49992 9.99992C2.49992 5.85778 5.85778 2.49992 9.99992 2.49992C11.7708 2.49992 13.3983 3.11365 14.6813 4.14L4.14 14.6813C3.11365 13.3983 2.49992 11.7708 2.49992 9.99992ZM5.31851 15.8598C6.60157 16.8862 8.22907 17.4999 9.99992 17.4999C14.1421 17.4999 17.4999 14.1421 17.4999 9.99992C17.4999 8.22907 16.8862 6.60157 15.8598 5.31851L5.31851 15.8598ZM9.99992 0.833252C4.93731 0.833252 0.833252 4.93731 0.833252 9.99992C0.833252 15.0625 4.93731 19.1666 9.99992 19.1666C15.0625 19.1666 19.1666 15.0625 19.1666 9.99992C19.1666 4.93731 15.0625 0.833252 9.99992 0.833252Z" fill="#8F97A3"/>
</svg>
