<svg width="21" height="20" viewBox="0 0 21 20" fill="none" xmlns="http://www.w3.org/2000/svg">
<rect width="20" height="20" transform="translate(0.5)" fill="white" fill-opacity="0.01" style="mix-blend-mode:multiply"/>
<path d="M12.1666 1.66663H5.49992C5.05789 1.66663 4.63397 1.84222 4.32141 2.15478C4.00885 2.46734 3.83325 2.89127 3.83325 3.33329V16.6666C3.83325 17.1087 4.00885 17.5326 4.32141 17.8451C4.63397 18.1577 5.05789 18.3333 5.49992 18.3333H15.4999C15.9419 18.3333 16.3659 18.1577 16.6784 17.8451C16.991 17.5326 17.1666 17.1087 17.1666 16.6666V6.66663M12.1666 1.66663L17.1666 6.66663M12.1666 1.66663V6.66663H17.1666M13.8333 10.8333H7.16658M13.8333 14.1666H7.16658M8.83325 7.49996H7.16658" stroke="#83888F" stroke-width="1.5" stroke-linecap="round" stroke-linejoin="round"/>
</svg>
