<svg width="20" height="20" viewBox="0 0 20 20" fill="none" xmlns="http://www.w3.org/2000/svg">
<path fill-rule="evenodd" clip-rule="evenodd" d="M9.99991 2.49992C5.85778 2.49992 2.49992 5.85778 2.49992 9.99992C2.49992 14.1421 5.85778 17.4999 9.99991 17.4999C14.142 17.4999 17.4999 14.1421 17.4999 9.99992C17.4999 5.85778 14.142 2.49992 9.99991 2.49992ZM0.833252 9.99992C0.833252 4.93731 4.93731 0.833252 9.99991 0.833252C15.0625 0.833252 19.1666 4.93731 19.1666 9.99992C19.1666 15.0625 15.0625 19.1666 9.99991 19.1666C4.93731 19.1666 0.833252 15.0625 0.833252 9.99992Z" fill="#45917D"/>
<path fill-rule="evenodd" clip-rule="evenodd" d="M9.99991 9.16658C10.4602 9.16658 10.8332 9.53968 10.8332 9.99992V13.3333C10.8332 13.7935 10.4602 14.1666 9.99991 14.1666C9.53968 14.1666 9.16658 13.7935 9.16658 13.3333V9.99992C9.16658 9.53968 9.53968 9.16658 9.99991 9.16658Z" fill="#45917D"/>
<path d="M10.8332 6.66658C10.8332 7.12682 10.4602 7.49992 9.99991 7.49992C9.53968 7.49992 9.16658 7.12682 9.16658 6.66658C9.16658 6.20635 9.53968 5.83325 9.99991 5.83325C10.4602 5.83325 10.8332 6.20635 10.8332 6.66658Z" fill="#45917D"/>
</svg>
