<svg width="20" height="20" viewBox="0 0 20 20" fill="none" xmlns="http://www.w3.org/2000/svg">
<path fill-rule="evenodd" clip-rule="evenodd" d="M4.16675 3.33329C3.70651 3.33329 3.33341 3.70639 3.33341 4.16663V15.8333C3.33341 16.2935 3.70651 16.6666 4.16675 16.6666H15.8334C16.2937 16.6666 16.6667 16.2935 16.6667 15.8333V4.16663C16.6667 3.70639 16.2937 3.33329 15.8334 3.33329H4.16675ZM1.66675 4.16663C1.66675 2.78591 2.78604 1.66663 4.16675 1.66663H15.8334C17.2141 1.66663 18.3334 2.78591 18.3334 4.16663V15.8333C18.3334 17.214 17.2141 18.3333 15.8334 18.3333H4.16675C2.78604 18.3333 1.66675 17.214 1.66675 15.8333V4.16663Z" fill="#45917D"/>
<path fill-rule="evenodd" clip-rule="evenodd" d="M7.08333 6.66667C6.85321 6.66667 6.66667 6.85321 6.66667 7.08333C6.66667 7.31345 6.85321 7.5 7.08333 7.5C7.31345 7.5 7.5 7.31345 7.5 7.08333C7.5 6.85321 7.31345 6.66667 7.08333 6.66667ZM5 7.08333C5 5.93274 5.93274 5 7.08333 5C8.23393 5 9.16667 5.93274 9.16667 7.08333C9.16667 8.23393 8.23393 9.16667 7.08333 9.16667C5.93274 9.16667 5 8.23393 5 7.08333Z" fill="#45917D"/>
<path fill-rule="evenodd" clip-rule="evenodd" d="M12.744 7.74408C13.0694 7.41864 13.5971 7.41864 13.9225 7.74408L18.0892 11.9107C18.4146 12.2362 18.4146 12.7638 18.0892 13.0893C17.7637 13.4147 17.2361 13.4147 16.9107 13.0893L13.3333 9.51184L4.75584 18.0893C4.4304 18.4147 3.90277 18.4147 3.57733 18.0893C3.25189 17.7638 3.25189 17.2362 3.57733 16.9107L12.744 7.74408Z" fill="#45917D"/>
</svg>
