<svg width="20" height="20" viewBox="0 0 20 20" fill="none" xmlns="http://www.w3.org/2000/svg">
<path fill-rule="evenodd" clip-rule="evenodd" d="M9.16675 3.33341C5.94509 3.33341 3.33341 5.94509 3.33341 9.16675C3.33341 12.3884 5.94509 15.0001 9.16675 15.0001C12.3884 15.0001 15.0001 12.3884 15.0001 9.16675C15.0001 5.94509 12.3884 3.33341 9.16675 3.33341ZM1.66675 9.16675C1.66675 5.02461 5.02461 1.66675 9.16675 1.66675C13.3089 1.66675 16.6667 5.02461 16.6667 9.16675C16.6667 13.3089 13.3089 16.6667 9.16675 16.6667C5.02461 16.6667 1.66675 13.3089 1.66675 9.16675Z" fill="#45917D"/>
<path fill-rule="evenodd" clip-rule="evenodd" d="M13.2858 13.2858C13.6113 12.9604 14.1389 12.9604 14.4643 13.2858L18.0893 16.9108C18.4148 17.2363 18.4148 17.7639 18.0893 18.0893C17.7639 18.4148 17.2363 18.4148 16.9108 18.0893L13.2858 14.4643C12.9604 14.1389 12.9604 13.6113 13.2858 13.2858Z" fill="#45917D"/>
</svg>
