<svg width="20" height="20" viewBox="0 0 20 20" fill="none" xmlns="http://www.w3.org/2000/svg">
<path fill-rule="evenodd" clip-rule="evenodd" d="M18.7883 10C18.7883 10.4603 18.4152 10.8334 17.9549 10.8334H4.99131C4.53108 10.8334 4.15798 10.4603 4.15798 10C4.15798 9.53978 4.53108 9.16669 4.99131 9.16669H17.9549C18.4152 9.16669 18.7883 9.53978 18.7883 10Z" fill="#B9BEC6"/>
<path fill-rule="evenodd" clip-rule="evenodd" d="M18.7883 10C18.7883 10.3201 18.6049 10.612 18.3165 10.7509L2.40655 18.4112C2.09869 18.5594 1.73154 18.5047 1.48029 18.2731C1.22904 18.0416 1.14459 17.6801 1.26725 17.3612L4.09847 10L1.26725 2.63885C1.14459 2.31994 1.22904 1.95847 1.48029 1.72691C1.73154 1.49535 2.09869 1.44064 2.40655 1.58886L18.3165 9.24919C18.6049 9.38806 18.7883 9.67989 18.7883 10ZM3.57738 4.00239L5.7691 9.70087C5.84316 9.89343 5.84316 10.1066 5.7691 10.2992L3.57738 15.9977L16.034 10L3.57738 4.00239Z" fill="#B9BEC6"/>
</svg>
