<svg width="20" height="20" viewBox="0 0 20 20" fill="none" xmlns="http://www.w3.org/2000/svg">
<path fill-rule="evenodd" clip-rule="evenodd" d="M1.66675 5.00004C1.66675 4.5398 2.03984 4.16671 2.50008 4.16671H17.5001C17.9603 4.16671 18.3334 4.5398 18.3334 5.00004C18.3334 5.46028 17.9603 5.83337 17.5001 5.83337H2.50008C2.03984 5.83337 1.66675 5.46028 1.66675 5.00004Z" fill="#45917D"/>
<path fill-rule="evenodd" clip-rule="evenodd" d="M8.33342 2.50004C8.1124 2.50004 7.90044 2.58784 7.74416 2.74412C7.58788 2.9004 7.50008 3.11236 7.50008 3.33337V4.16671H12.5001V3.33337C12.5001 3.11236 12.4123 2.9004 12.256 2.74412C12.0997 2.58784 11.8878 2.50004 11.6667 2.50004H8.33342ZM14.1667 4.16671V3.33337C14.1667 2.67033 13.9034 2.03445 13.4345 1.56561C12.9657 1.09677 12.3298 0.833374 11.6667 0.833374H8.33342C7.67037 0.833374 7.03449 1.09677 6.56565 1.56561C6.09681 2.03445 5.83342 2.67033 5.83342 3.33337V4.16671H4.16675C3.70651 4.16671 3.33341 4.5398 3.33341 5.00004V16.6667C3.33341 17.3297 3.59681 17.9656 4.06565 18.4345C4.53449 18.9033 5.17037 19.1667 5.83342 19.1667H14.1667C14.8298 19.1667 15.4657 18.9033 15.9345 18.4345C16.4034 17.9656 16.6667 17.3297 16.6667 16.6667V5.00004C16.6667 4.5398 16.2937 4.16671 15.8334 4.16671H14.1667ZM5.00008 5.83337V16.6667C5.00008 16.8877 5.08788 17.0997 5.24416 17.256C5.40044 17.4122 5.6124 17.5 5.83342 17.5H14.1667C14.3878 17.5 14.5997 17.4122 14.756 17.256C14.9123 17.0997 15.0001 16.8877 15.0001 16.6667V5.83337H5.00008Z" fill="#45917D"/>
<path fill-rule="evenodd" clip-rule="evenodd" d="M8.33342 8.33337C8.79365 8.33337 9.16675 8.70647 9.16675 9.16671V14.1667C9.16675 14.6269 8.79365 15 8.33342 15C7.87318 15 7.50008 14.6269 7.50008 14.1667V9.16671C7.50008 8.70647 7.87318 8.33337 8.33342 8.33337Z" fill="#45917D"/>
<path fill-rule="evenodd" clip-rule="evenodd" d="M11.6667 8.33337C12.127 8.33337 12.5001 8.70647 12.5001 9.16671V14.1667C12.5001 14.6269 12.127 15 11.6667 15C11.2065 15 10.8334 14.6269 10.8334 14.1667V9.16671C10.8334 8.70647 11.2065 8.33337 11.6667 8.33337Z" fill="#45917D"/>
</svg>
